<svg xmlns="http://www.w3.org/2000/svg" xmlns:xlink="http://www.w3.org/1999/xlink" width="500" zoomAndPan="magnify" viewBox="0 0 375 374.999991" height="500" preserveAspectRatio="xMidYMid meet" version="1.0"><defs><g/><clipPath id="11a1e770fd"><path d="M 0 0 L 63 0 L 63 26.09375 L 0 26.09375 Z M 0 0 " clip-rule="nonzero"/></clipPath><clipPath id="b35ee06a78"><path d="M 50.171875 19.816406 L 63 19.816406 L 63 32.496094 L 50.171875 32.496094 Z M 50.171875 19.816406 " clip-rule="nonzero"/></clipPath><clipPath id="ffe8b30c98"><path d="M 0 19.253906 L 12.128906 19.253906 L 12.128906 32.484375 L 0 32.484375 Z M 0 19.253906 " clip-rule="nonzero"/></clipPath></defs><g fill="#000000" fill-opacity="1"><g transform="translate(11.477971, 32.705688)"><g><path d="M 0 -5.902344 L 0 0 L 0.652344 0 L 0.652344 -3.046875 C 0.652344 -3.273438 0.84375 -3.382812 1.03125 -3.40625 C 1.636719 -3.476562 2.226562 -2.597656 2.980469 -2.691406 C 3.367188 -2.746094 3.613281 -3.054688 3.484375 -3.621094 C 3.421875 -3.289062 3.132812 -3.289062 2.886719 -3.328125 C 2.480469 -3.382812 2.125 -3.660156 1.730469 -3.738281 C 1.34375 -3.816406 0.929688 -3.691406 0.652344 -3.359375 L 0.652344 -5.777344 C 2.359375 -5.777344 3.15625 -5.46875 4.210938 -5.242188 L 4.210938 -5.902344 Z M 0 -5.902344 "/></g></g></g><g fill="#000000" fill-opacity="1"><g transform="translate(16.37171, 32.705688)"><g><path d="M 2.613281 -5.902344 L 1.886719 -5.902344 C 1.777344 -5.011719 1.417969 -4.421875 0.9375 -3.707031 C 0.542969 -3.117188 0.09375 -2.449219 0.015625 -1.722656 C -0.09375 -0.730469 0.542969 0 1.582031 0 C 2.863281 0 3.566406 -1.0625 3.566406 -2.164062 L 4.539062 0 L 5.257812 0 Z M 3.382812 -2.566406 C 3.722656 -1.816406 2.894531 -0.699219 2.117188 -0.566406 C 1.203125 -0.402344 0.589844 -0.953125 0.511719 -1.730469 C 0.433594 -2.480469 0.90625 -3.257812 1.257812 -3.886719 C 1.589844 -4.46875 1.863281 -5.035156 1.984375 -5.6875 Z M 3.382812 -2.566406 "/></g></g></g><g fill="#000000" fill-opacity="1"><g transform="translate(22.075836, 32.705688)"><g><path d="M 2.0625 0 C 2.636719 0 3.359375 -0.101562 3.878906 -0.449219 C 4.769531 -1.039062 4.746094 -2.226562 3.964844 -2.855469 C 3.367188 -3.34375 2.367188 -3.375 1.636719 -3.558594 C 1.03125 -3.714844 0.386719 -3.996094 0.449219 -4.660156 C 0.503906 -5.25 1.078125 -5.59375 1.613281 -5.714844 C 2.335938 -5.878906 3.226562 -5.722656 3.628906 -5.195312 C 3.863281 -4.886719 3.949219 -4.476562 3.792969 -4.035156 C 4.234375 -4.027344 4.46875 -4.296875 4.46875 -4.652344 C 4.46875 -5.105469 3.988281 -5.46875 3.613281 -5.648438 C 3.21875 -5.824219 2.785156 -5.902344 2.351562 -5.902344 C 1.589844 -5.902344 0.527344 -5.730469 0.140625 -4.972656 C -0.0859375 -4.53125 -0.03125 -3.972656 0.292969 -3.574219 C 0.921875 -2.816406 2.234375 -2.871094 3.101562 -2.566406 C 3.980469 -2.257812 4.445312 -1.34375 3.746094 -0.660156 C 3.09375 -0.0234375 1.542969 0.117188 0.867188 -0.605469 C 0.574219 -0.921875 0.449219 -1.371094 0.621094 -1.863281 C 0.179688 -1.863281 -0.0546875 -1.597656 -0.0546875 -1.25 C -0.0546875 -0.792969 0.425781 -0.425781 0.800781 -0.25 C 1.1875 -0.0703125 1.628906 0 2.0625 0 Z M 2.0625 0 "/></g></g></g><g fill="#000000" fill-opacity="1"><g transform="translate(27.300022, 32.705688)"><g><path d="M 0.652344 -3.367188 L 0.652344 -5.902344 L 0 -5.902344 L 0 0 L 0.652344 0 L 0.652344 -3.078125 C 0.652344 -3.3125 0.921875 -3.398438 1.117188 -3.398438 C 1.769531 -3.398438 2.273438 -2.691406 3.0625 -2.714844 C 3.4375 -2.722656 3.800781 -2.894531 3.933594 -3.289062 L 3.933594 0 L 4.585938 0 L 4.585938 -5.902344 L 3.933594 -5.902344 L 3.933594 -3.667969 C 3.933594 -3.351562 3.667969 -3.226562 3.375 -3.25 C 2.777344 -3.304688 2.234375 -3.722656 1.644531 -3.753906 C 1.273438 -3.777344 0.898438 -3.660156 0.652344 -3.367188 Z M 0.652344 -3.367188 "/></g></g></g><g fill="#000000" fill-opacity="1"><g transform="translate(32.602886, 32.705688)"><g><path d="M 0 0 L 0.652344 0 L 0.652344 -5.902344 L 0 -5.902344 Z M 0 0 "/></g></g></g><g fill="#000000" fill-opacity="1"><g transform="translate(33.963962, 32.705688)"><g><path d="M 2.855469 -5.902344 C 1.28125 -5.902344 0 -4.578125 0 -2.949219 C 0 -1.628906 0.84375 -0.511719 2 -0.132812 L 1.109375 0.753906 L 1.195312 0.835938 C 1.34375 0.691406 1.503906 0.628906 1.675781 0.628906 C 2.234375 0.628906 2.855469 1.25 3.515625 1.351562 C 4.164062 1.457031 4.675781 1.109375 4.492188 0.410156 C 4.421875 0.730469 4.085938 0.785156 3.800781 0.746094 C 3.203125 0.667969 2.636719 0.195312 1.992188 0.277344 C 1.878906 0.292969 1.769531 0.324219 1.660156 0.378906 L 2.132812 -0.09375 C 2.359375 -0.03125 2.605469 0 2.855469 0 C 4.4375 0 5.714844 -1.320312 5.714844 -2.949219 C 5.714844 -4.578125 4.4375 -5.902344 2.855469 -5.902344 Z M 2.140625 -0.277344 C 1.273438 -0.660156 0.652344 -1.707031 0.652344 -2.949219 C 0.652344 -4.507812 1.644531 -5.777344 2.855469 -5.777344 C 4.078125 -5.777344 5.058594 -4.507812 5.058594 -2.949219 C 5.058594 -1.386719 4.078125 -0.125 2.855469 -0.125 C 2.652344 -0.125 2.457031 -0.15625 2.265625 -0.226562 L 3.257812 -1.21875 L 3.171875 -1.304688 Z M 2.140625 -0.277344 "/></g></g></g><g fill="#000000" fill-opacity="1"><g transform="translate(40.384059, 32.705688)"><g><path d="M 3.933594 -5.902344 L 3.933594 -1.496094 C 3.933594 -1.320312 3.871094 -1.1875 3.746094 -1.070312 C 3.265625 -0.628906 2.574219 -0.308594 1.976562 -0.234375 C 1.242188 -0.15625 0.652344 -0.488281 0.652344 -1.503906 L 0.652344 -5.902344 L 0 -5.902344 L 0 -1.503906 C 0 -0.417969 0.519531 0 1.589844 0 C 2.328125 0 3.3125 -0.402344 3.933594 -1.070312 L 3.933594 0 L 4.585938 0 L 4.585938 -5.902344 Z M 3.933594 -5.902344 "/></g></g></g><g fill="#000000" fill-opacity="1"><g transform="translate(45.671185, 32.705688)"><g><path d="M 2.949219 -5.902344 C 1.320312 -5.902344 0 -4.578125 0 -2.949219 C 0 -1.3125 1.328125 0 2.949219 0 C 3.777344 0 4.53125 -0.226562 5.066406 -0.652344 L 5.066406 -1.3125 C 4.335938 -0.316406 3 0.277344 1.878906 -0.449219 C 1.15625 -0.921875 0.660156 -1.863281 0.652344 -2.949219 C 0.652344 -3.242188 0.820312 -3.390625 1.109375 -3.398438 C 1.667969 -3.398438 2.289062 -2.777344 2.949219 -2.667969 C 3.589844 -2.574219 4.109375 -2.910156 3.925781 -3.621094 C 3.855469 -3.289062 3.515625 -3.242188 3.234375 -3.273438 C 2.683594 -3.34375 2.164062 -3.753906 1.574219 -3.753906 C 1.25 -3.761719 0.90625 -3.667969 0.675781 -3.367188 C 0.84375 -4.730469 1.792969 -5.777344 2.949219 -5.777344 C 3.933594 -5.777344 4.722656 -4.988281 4.382812 -4.035156 C 4.824219 -4.027344 5.066406 -4.296875 5.066406 -4.652344 C 5.066406 -5.105469 4.578125 -5.46875 4.203125 -5.648438 C 3.816406 -5.824219 3.375 -5.902344 2.949219 -5.902344 Z M 2.949219 -5.902344 "/></g></g></g><g clip-path="url(#11a1e770fd)"><path fill="#000000" d="M 61.664062 28.453125 C 60.625 26.902344 58.402344 25.84375 57.148438 24.75 C 55.683594 24.417969 54.417969 23.683594 53.148438 23.101562 C 51.804688 22.488281 50.480469 21.988281 49.144531 21.457031 C 45.085938 19.84375 41.21875 18.019531 38.476562 15.179688 C 37.523438 14.195312 36.699219 12.988281 36.113281 11.886719 C 35.761719 11.21875 35.488281 10.023438 34.984375 9.726562 C 34.128906 9.214844 32.550781 9.671875 31.703125 9.3125 C 32.5 6.464844 29.386719 5.441406 29.546875 3.136719 C 29.703125 0.910156 32.28125 0.960938 33.34375 2.210938 C 33.691406 2.621094 33.898438 3.71875 34.882812 3.34375 C 35.222656 2.761719 34.519531 2.117188 34.164062 1.699219 C 33.722656 1.171875 33.191406 0.644531 32.523438 0.464844 C 30.816406 -0.0078125 28.804688 0.933594 28.625 2.933594 C 28.355469 5.875 31.257812 6.03125 30.882812 9.3125 C 29.589844 9.648438 28.015625 9.242188 27.289062 9.726562 C 26.84375 10.023438 26.183594 11.878906 25.75 12.605469 C 25.175781 13.574219 24.402344 14.636719 23.800781 15.28125 C 20.625 18.699219 15.703125 20.050781 11.078125 22.074219 C 9.421875 22.796875 7.742188 23.664062 6.050781 24.542969 C 3.773438 25.730469 1.253906 26.886719 0.511719 29.175781 C 0.308594 29.789062 -0.00390625 31.3125 0.816406 32.054688 C 2 32.378906 3.109375 30.699219 4.410156 30.410156 C 5.050781 30.265625 6.230469 30.410156 7.28125 30.410156 L 10.875 30.410156 C 22.199219 30.410156 37.902344 30.511719 51.609375 30.511719 C 53.953125 30.511719 56.617188 30.234375 58.378906 30.613281 C 59.667969 30.894531 60.527344 32.519531 62.074219 32.363281 C 63.011719 31.082031 62.316406 29.429688 61.664062 28.453125 Z M 34.0625 2.519531 C 33.480469 1.800781 32.996094 0.984375 31.804688 0.875 C 32.921875 0.648438 33.6875 1.660156 34.0625 2.519531 Z M 30.882812 0.773438 C 31.09375 0.714844 31.664062 0.722656 31.703125 0.773438 C 31.804688 0.90625 31.179688 0.832031 31.085938 0.875 C 30.714844 1.042969 29.671875 1.511719 29.34375 2.007812 C 29.6875 1.3125 30.472656 0.882812 30.882812 0.773438 Z M 29.136719 2.210938 C 29.550781 2.253906 29.058594 2.976562 29.035156 3.242188 C 29.601562 5.449219 31.609375 6.652344 31.394531 9.3125 C 30.890625 8.859375 31.191406 8.527344 31.085938 7.976562 C 30.695312 5.910156 28.3125 4.914062 29.136719 2.210938 Z M 34.882812 10.035156 C 36.125 12.460938 37.171875 14.546875 39.089844 16.3125 C 42.121094 19.09375 47.347656 20.839844 51.609375 22.691406 C 53.574219 23.542969 54.972656 24.304688 56.945312 25.058594 C 58.6875 26.394531 60.878906 27.285156 61.5625 29.6875 C 57.101562 23.113281 45.109375 22.351562 39.089844 17.132812 C 37.125 15.429688 35.941406 13.371094 34.679688 10.753906 C 32.96875 10.164062 30.246094 9.769531 28.417969 10.445312 C 27.292969 10.863281 27.292969 11.957031 26.574219 12.710938 C 26.15625 12.554688 26.875 11.878906 26.984375 11.578125 C 26.664062 8.761719 32.449219 9.554688 34.882812 10.035156 Z M 3.179688 26.394531 C 10.238281 21.519531 21.921875 20.398438 26.160156 12.503906 C 26.488281 12.9375 25.882812 13.394531 25.648438 13.839844 C 26.113281 13.757812 26.171875 13.269531 26.367188 12.914062 C 24.472656 17.476562 19.90625 19.28125 14.976562 21.351562 C 12.714844 22.304688 10.394531 23.324219 8 24.441406 C 5.25 25.722656 2.140625 27.023438 1.023438 29.792969 C 0.96875 28.300781 2.164062 27.097656 3.179688 26.394531 Z M 2.5625 30.921875 C 2.503906 31.105469 2.277344 30.9375 2.460938 30.921875 C 8.289062 27.679688 13.976562 24.292969 19.902344 21.148438 C 14.21875 24.503906 8.421875 27.742188 2.5625 30.921875 Z M 31.085938 15.28125 C 32.046875 15.515625 32.414062 15.644531 33.726562 16.511719 C 34.730469 17.175781 35.539062 17.667969 36.421875 18.164062 C 42.804688 21.75 49.609375 25.386719 55.816406 29.277344 C 50.398438 29.09375 43.574219 29.261719 37.871094 29.289062 L 34.558594 29.261719 C 26.746094 29.058594 17.269531 29.132812 6.769531 29.070312 C 14.734375 24.332031 23.082031 19.980469 31.085938 15.28125 Z M 20.003906 21.148438 C 20.855469 20.558594 21.753906 20.019531 22.777344 19.605469 C 22.429688 19.882812 20.882812 20.71875 20.003906 21.148438 Z M 22.980469 19.5 C 23.773438 18.890625 24.699219 18.410156 25.648438 17.957031 C 24.851562 18.566406 23.914062 19.027344 22.980469 19.5 Z M 5.84375 29.996094 C 6.324219 30.050781 7.867188 29.601562 8.410156 30.101562 C 7.753906 29.980469 6.226562 30.261719 5.84375 29.996094 Z M 8.511719 29.894531 C 9.875 29.964844 10.480469 29.941406 11.589844 29.996094 C 10.832031 30.105469 9.105469 30.296875 8.511719 29.894531 Z M 11.796875 29.996094 L 12.414062 29.996094 C 20.101562 29.929688 28.324219 30.136719 36.21875 29.894531 C 28.3125 29.84375 17.347656 29.933594 5.84375 29.6875 C 6.605469 29.15625 8.773438 29.234375 10.464844 29.277344 C 15.359375 29.40625 22.375 29.4375 29.132812 29.367188 L 29.195312 29.394531 L 41.570312 29.5 L 41.554688 29.46875 C 45.054688 29.523438 48.488281 29.515625 51.503906 29.484375 C 53.257812 29.464844 55.136719 29.253906 56.738281 29.792969 C 49.078125 30.003906 43.078125 29.761719 36.320312 29.894531 C 43.761719 30.164062 51.644531 29.871094 57.25 30.101562 C 40.355469 30.257812 26.40625 30.289062 11.796875 29.996094 Z M 61.765625 31.851562 C 53.378906 27.125 45.082031 22.308594 36.730469 17.546875 L 36.011719 17.546875 C 34.589844 16.503906 32.882812 15.742188 31.292969 14.871094 C 29.570312 15.71875 27.992188 16.707031 26.367188 17.648438 C 23.855469 18.246094 21.457031 20.003906 19.289062 21.25 C 13.167969 24.765625 6.917969 28.058594 0.816406 31.4375 C 1.785156 26.933594 6.777344 25 10.769531 23.308594 C 14.019531 21.929688 17.335938 20.730469 20.109375 19.296875 C 20.339844 19.535156 19.496094 19.570312 19.492188 19.914062 C 22.066406 18.480469 24.8125 16.277344 26.570312 13.222656 C 27.039062 12.410156 27.722656 10.722656 28.523438 10.652344 C 29.6875 10.542969 30.226562 11.9375 31.394531 12.089844 C 31.273438 11.664062 30.738281 11.652344 30.472656 11.371094 C 31.070312 11.320312 31.742188 12.082031 32.421875 12.296875 C 31.878906 11.574219 30.914062 11.269531 30.0625 10.855469 C 29.988281 11.132812 30.273438 11.054688 30.367188 11.164062 C 30.023438 11.335938 29.601562 10.703125 29.136719 10.652344 C 30.847656 10.136719 33.195312 10.25 34.574219 10.960938 C 35.421875 12.730469 36.210938 14.328125 37.347656 15.691406 C 42.03125 21.332031 51.628906 22 57.457031 26.5 L 57.96875 26.5 C 59.179688 27.652344 60.691406 28.503906 61.355469 30.203125 C 60.914062 30.132812 60.726562 29.804688 60.328125 29.6875 C 60.796875 30.398438 62.132812 30.632812 61.765625 31.851562 Z M 61.765625 31.851562 " fill-opacity="1" fill-rule="nonzero"/></g><g clip-path="url(#b35ee06a78)"><path fill="#000000" d="M 61.664062 28.453125 C 60.625 26.902344 58.402344 25.84375 57.148438 24.75 C 55.683594 24.417969 54.417969 23.683594 53.148438 23.101562 C 51.804688 22.488281 50.480469 21.988281 49.144531 21.457031 C 45.085938 19.84375 41.21875 18.019531 38.476562 15.179688 C 37.523438 14.195312 36.699219 12.988281 36.113281 11.886719 C 35.761719 11.21875 35.488281 10.023438 34.984375 9.726562 C 34.128906 9.214844 32.550781 9.671875 31.703125 9.3125 C 32.5 6.464844 29.386719 5.441406 29.546875 3.136719 C 29.703125 0.910156 32.28125 0.960938 33.34375 2.210938 C 33.691406 2.621094 33.898438 3.71875 34.882812 3.34375 C 35.222656 2.761719 34.519531 2.117188 34.164062 1.699219 C 33.722656 1.171875 33.191406 0.644531 32.523438 0.464844 C 30.816406 -0.0078125 28.804688 0.933594 28.625 2.933594 C 28.355469 5.875 31.257812 6.03125 30.882812 9.3125 C 29.589844 9.648438 28.015625 9.242188 27.289062 9.726562 C 26.84375 10.023438 26.183594 11.878906 25.75 12.605469 C 25.175781 13.574219 24.402344 14.636719 23.800781 15.28125 C 20.625 18.699219 15.703125 20.050781 11.078125 22.074219 C 9.421875 22.796875 7.742188 23.664062 6.050781 24.542969 C 3.773438 25.730469 1.253906 26.886719 0.511719 29.175781 C 0.308594 29.789062 -0.00390625 31.3125 0.816406 32.054688 C 2 32.378906 3.109375 30.699219 4.410156 30.410156 C 5.050781 30.265625 6.230469 30.410156 7.28125 30.410156 L 10.875 30.410156 C 22.199219 30.410156 37.902344 30.511719 51.609375 30.511719 C 53.953125 30.511719 56.617188 30.234375 58.378906 30.613281 C 59.667969 30.894531 60.527344 32.519531 62.074219 32.363281 C 63.011719 31.082031 62.316406 29.429688 61.664062 28.453125 Z M 34.0625 2.519531 C 33.480469 1.800781 32.996094 0.984375 31.804688 0.875 C 32.921875 0.648438 33.6875 1.660156 34.0625 2.519531 Z M 30.882812 0.773438 C 31.09375 0.714844 31.664062 0.722656 31.703125 0.773438 C 31.804688 0.90625 31.179688 0.832031 31.085938 0.875 C 30.714844 1.042969 29.671875 1.511719 29.34375 2.007812 C 29.6875 1.3125 30.472656 0.882812 30.882812 0.773438 Z M 29.136719 2.210938 C 29.550781 2.253906 29.058594 2.976562 29.035156 3.242188 C 29.601562 5.449219 31.609375 6.652344 31.394531 9.3125 C 30.890625 8.859375 31.191406 8.527344 31.085938 7.976562 C 30.695312 5.910156 28.3125 4.914062 29.136719 2.210938 Z M 34.882812 10.035156 C 36.125 12.460938 37.171875 14.546875 39.089844 16.3125 C 42.121094 19.09375 47.347656 20.839844 51.609375 22.691406 C 53.574219 23.542969 54.972656 24.304688 56.945312 25.058594 C 58.6875 26.394531 60.878906 27.285156 61.5625 29.6875 C 57.101562 23.113281 45.109375 22.351562 39.089844 17.132812 C 37.125 15.429688 35.941406 13.371094 34.679688 10.753906 C 32.96875 10.164062 30.246094 9.769531 28.417969 10.445312 C 27.292969 10.863281 27.292969 11.957031 26.574219 12.710938 C 26.15625 12.554688 26.875 11.878906 26.984375 11.578125 C 26.664062 8.761719 32.449219 9.554688 34.882812 10.035156 Z M 3.179688 26.394531 C 10.238281 21.519531 21.921875 20.398438 26.160156 12.503906 C 26.488281 12.9375 25.882812 13.394531 25.648438 13.839844 C 26.113281 13.757812 26.171875 13.269531 26.367188 12.914062 C 24.472656 17.476562 19.90625 19.28125 14.976562 21.351562 C 12.714844 22.304688 10.394531 23.324219 8 24.441406 C 5.25 25.722656 2.140625 27.023438 1.023438 29.792969 C 0.96875 28.300781 2.164062 27.097656 3.179688 26.394531 Z M 2.5625 30.921875 C 2.503906 31.105469 2.277344 30.9375 2.460938 30.921875 C 8.289062 27.679688 13.976562 24.292969 19.902344 21.148438 C 14.21875 24.503906 8.421875 27.742188 2.5625 30.921875 Z M 31.085938 15.28125 C 32.046875 15.515625 32.414062 15.644531 33.726562 16.511719 C 34.730469 17.175781 35.539062 17.667969 36.421875 18.164062 C 42.804688 21.75 49.609375 25.386719 55.816406 29.277344 C 50.398438 29.09375 43.574219 29.261719 37.871094 29.289062 L 34.558594 29.261719 C 26.746094 29.058594 17.269531 29.132812 6.769531 29.070312 C 14.734375 24.332031 23.082031 19.980469 31.085938 15.28125 Z M 20.003906 21.148438 C 20.855469 20.558594 21.753906 20.019531 22.777344 19.605469 C 22.429688 19.882812 20.882812 20.71875 20.003906 21.148438 Z M 22.980469 19.5 C 23.773438 18.890625 24.699219 18.410156 25.648438 17.957031 C 24.851562 18.566406 23.914062 19.027344 22.980469 19.5 Z M 5.84375 29.996094 C 6.324219 30.050781 7.867188 29.601562 8.410156 30.101562 C 7.753906 29.980469 6.226562 30.261719 5.84375 29.996094 Z M 8.511719 29.894531 C 9.875 29.964844 10.480469 29.941406 11.589844 29.996094 C 10.832031 30.105469 9.105469 30.296875 8.511719 29.894531 Z M 11.796875 29.996094 L 12.414062 29.996094 C 20.101562 29.929688 28.324219 30.136719 36.21875 29.894531 C 28.3125 29.84375 17.347656 29.933594 5.84375 29.6875 C 6.605469 29.15625 8.773438 29.234375 10.464844 29.277344 C 15.359375 29.40625 22.375 29.4375 29.132812 29.367188 L 29.195312 29.394531 L 41.570312 29.5 L 41.554688 29.46875 C 45.054688 29.523438 48.488281 29.515625 51.503906 29.484375 C 53.257812 29.464844 55.136719 29.253906 56.738281 29.792969 C 49.078125 30.003906 43.078125 29.761719 36.320312 29.894531 C 43.761719 30.164062 51.644531 29.871094 57.25 30.101562 C 40.355469 30.257812 26.40625 30.289062 11.796875 29.996094 Z M 61.765625 31.851562 C 53.378906 27.125 45.082031 22.308594 36.730469 17.546875 L 36.011719 17.546875 C 34.589844 16.503906 32.882812 15.742188 31.292969 14.871094 C 29.570312 15.71875 27.992188 16.707031 26.367188 17.648438 C 23.855469 18.246094 21.457031 20.003906 19.289062 21.25 C 13.167969 24.765625 6.917969 28.058594 0.816406 31.4375 C 1.785156 26.933594 6.777344 25 10.769531 23.308594 C 14.019531 21.929688 17.335938 20.730469 20.109375 19.296875 C 20.339844 19.535156 19.496094 19.570312 19.492188 19.914062 C 22.066406 18.480469 24.8125 16.277344 26.570312 13.222656 C 27.039062 12.410156 27.722656 10.722656 28.523438 10.652344 C 29.6875 10.542969 30.226562 11.9375 31.394531 12.089844 C 31.273438 11.664062 30.738281 11.652344 30.472656 11.371094 C 31.070312 11.320312 31.742188 12.082031 32.421875 12.296875 C 31.878906 11.574219 30.914062 11.269531 30.0625 10.855469 C 29.988281 11.132812 30.273438 11.054688 30.367188 11.164062 C 30.023438 11.335938 29.601562 10.703125 29.136719 10.652344 C 30.847656 10.136719 33.195312 10.25 34.574219 10.960938 C 35.421875 12.730469 36.210938 14.328125 37.347656 15.691406 C 42.03125 21.332031 51.628906 22 57.457031 26.5 L 57.96875 26.5 C 59.179688 27.652344 60.691406 28.503906 61.355469 30.203125 C 60.914062 30.132812 60.726562 29.804688 60.328125 29.6875 C 60.796875 30.398438 62.132812 30.632812 61.765625 31.851562 Z M 61.765625 31.851562 " fill-opacity="1" fill-rule="nonzero"/></g><g clip-path="url(#ffe8b30c98)"><path fill="#000000" d="M 61.664062 28.453125 C 60.625 26.902344 58.402344 25.84375 57.148438 24.75 C 55.683594 24.417969 54.417969 23.683594 53.148438 23.101562 C 51.804688 22.488281 50.480469 21.988281 49.144531 21.457031 C 45.085938 19.84375 41.21875 18.019531 38.476562 15.179688 C 37.523438 14.195312 36.699219 12.988281 36.113281 11.886719 C 35.761719 11.21875 35.488281 10.023438 34.984375 9.726562 C 34.128906 9.214844 32.550781 9.671875 31.703125 9.3125 C 32.5 6.464844 29.386719 5.441406 29.546875 3.136719 C 29.703125 0.910156 32.28125 0.960938 33.34375 2.210938 C 33.691406 2.621094 33.898438 3.71875 34.882812 3.34375 C 35.222656 2.761719 34.519531 2.117188 34.164062 1.699219 C 33.722656 1.171875 33.191406 0.644531 32.523438 0.464844 C 30.816406 -0.0078125 28.804688 0.933594 28.625 2.933594 C 28.355469 5.875 31.257812 6.03125 30.882812 9.3125 C 29.589844 9.648438 28.015625 9.242188 27.289062 9.726562 C 26.84375 10.023438 26.183594 11.878906 25.75 12.605469 C 25.175781 13.574219 24.402344 14.636719 23.800781 15.28125 C 20.625 18.699219 15.703125 20.050781 11.078125 22.074219 C 9.421875 22.796875 7.742188 23.664062 6.050781 24.542969 C 3.773438 25.730469 1.253906 26.886719 0.511719 29.175781 C 0.308594 29.789062 -0.00390625 31.3125 0.816406 32.054688 C 2 32.378906 3.109375 30.699219 4.410156 30.410156 C 5.050781 30.265625 6.230469 30.410156 7.28125 30.410156 L 10.875 30.410156 C 22.199219 30.410156 37.902344 30.511719 51.609375 30.511719 C 53.953125 30.511719 56.617188 30.234375 58.378906 30.613281 C 59.667969 30.894531 60.527344 32.519531 62.074219 32.363281 C 63.011719 31.082031 62.316406 29.429688 61.664062 28.453125 Z M 34.0625 2.519531 C 33.480469 1.800781 32.996094 0.984375 31.804688 0.875 C 32.921875 0.648438 33.6875 1.660156 34.0625 2.519531 Z M 30.882812 0.773438 C 31.09375 0.714844 31.664062 0.722656 31.703125 0.773438 C 31.804688 0.90625 31.179688 0.832031 31.085938 0.875 C 30.714844 1.042969 29.671875 1.511719 29.34375 2.007812 C 29.6875 1.3125 30.472656 0.882812 30.882812 0.773438 Z M 29.136719 2.210938 C 29.550781 2.253906 29.058594 2.976562 29.035156 3.242188 C 29.601562 5.449219 31.609375 6.652344 31.394531 9.3125 C 30.890625 8.859375 31.191406 8.527344 31.085938 7.976562 C 30.695312 5.910156 28.3125 4.914062 29.136719 2.210938 Z M 34.882812 10.035156 C 36.125 12.460938 37.171875 14.546875 39.089844 16.3125 C 42.121094 19.09375 47.347656 20.839844 51.609375 22.691406 C 53.574219 23.542969 54.972656 24.304688 56.945312 25.058594 C 58.6875 26.394531 60.878906 27.285156 61.5625 29.6875 C 57.101562 23.113281 45.109375 22.351562 39.089844 17.132812 C 37.125 15.429688 35.941406 13.371094 34.679688 10.753906 C 32.96875 10.164062 30.246094 9.769531 28.417969 10.445312 C 27.292969 10.863281 27.292969 11.957031 26.574219 12.710938 C 26.15625 12.554688 26.875 11.878906 26.984375 11.578125 C 26.664062 8.761719 32.449219 9.554688 34.882812 10.035156 Z M 3.179688 26.394531 C 10.238281 21.519531 21.921875 20.398438 26.160156 12.503906 C 26.488281 12.9375 25.882812 13.394531 25.648438 13.839844 C 26.113281 13.757812 26.171875 13.269531 26.367188 12.914062 C 24.472656 17.476562 19.90625 19.28125 14.976562 21.351562 C 12.714844 22.304688 10.394531 23.324219 8 24.441406 C 5.25 25.722656 2.140625 27.023438 1.023438 29.792969 C 0.96875 28.300781 2.164062 27.097656 3.179688 26.394531 Z M 2.5625 30.921875 C 2.503906 31.105469 2.277344 30.9375 2.460938 30.921875 C 8.289062 27.679688 13.976562 24.292969 19.902344 21.148438 C 14.21875 24.503906 8.421875 27.742188 2.5625 30.921875 Z M 31.085938 15.28125 C 32.046875 15.515625 32.414062 15.644531 33.726562 16.511719 C 34.730469 17.175781 35.539062 17.667969 36.421875 18.164062 C 42.804688 21.75 49.609375 25.386719 55.816406 29.277344 C 50.398438 29.09375 43.574219 29.261719 37.871094 29.289062 L 34.558594 29.261719 C 26.746094 29.058594 17.269531 29.132812 6.769531 29.070312 C 14.734375 24.332031 23.082031 19.980469 31.085938 15.28125 Z M 20.003906 21.148438 C 20.855469 20.558594 21.753906 20.019531 22.777344 19.605469 C 22.429688 19.882812 20.882812 20.71875 20.003906 21.148438 Z M 22.980469 19.5 C 23.773438 18.890625 24.699219 18.410156 25.648438 17.957031 C 24.851562 18.566406 23.914062 19.027344 22.980469 19.5 Z M 5.84375 29.996094 C 6.324219 30.050781 7.867188 29.601562 8.410156 30.101562 C 7.753906 29.980469 6.226562 30.261719 5.84375 29.996094 Z M 8.511719 29.894531 C 9.875 29.964844 10.480469 29.941406 11.589844 29.996094 C 10.832031 30.105469 9.105469 30.296875 8.511719 29.894531 Z M 11.796875 29.996094 L 12.414062 29.996094 C 20.101562 29.929688 28.324219 30.136719 36.21875 29.894531 C 28.3125 29.84375 17.347656 29.933594 5.84375 29.6875 C 6.605469 29.15625 8.773438 29.234375 10.464844 29.277344 C 15.359375 29.40625 22.375 29.4375 29.132812 29.367188 L 29.195312 29.394531 L 41.570312 29.5 L 41.554688 29.46875 C 45.054688 29.523438 48.488281 29.515625 51.503906 29.484375 C 53.257812 29.464844 55.136719 29.253906 56.738281 29.792969 C 49.078125 30.003906 43.078125 29.761719 36.320312 29.894531 C 43.761719 30.164062 51.644531 29.871094 57.25 30.101562 C 40.355469 30.257812 26.40625 30.289062 11.796875 29.996094 Z M 61.765625 31.851562 C 53.378906 27.125 45.082031 22.308594 36.730469 17.546875 L 36.011719 17.546875 C 34.589844 16.503906 32.882812 15.742188 31.292969 14.871094 C 29.570312 15.71875 27.992188 16.707031 26.367188 17.648438 C 23.855469 18.246094 21.457031 20.003906 19.289062 21.25 C 13.167969 24.765625 6.917969 28.058594 0.816406 31.4375 C 1.785156 26.933594 6.777344 25 10.769531 23.308594 C 14.019531 21.929688 17.335938 20.730469 20.109375 19.296875 C 20.339844 19.535156 19.496094 19.570312 19.492188 19.914062 C 22.066406 18.480469 24.8125 16.277344 26.570312 13.222656 C 27.039062 12.410156 27.722656 10.722656 28.523438 10.652344 C 29.6875 10.542969 30.226562 11.9375 31.394531 12.089844 C 31.273438 11.664062 30.738281 11.652344 30.472656 11.371094 C 31.070312 11.320312 31.742188 12.082031 32.421875 12.296875 C 31.878906 11.574219 30.914062 11.269531 30.0625 10.855469 C 29.988281 11.132812 30.273438 11.054688 30.367188 11.164062 C 30.023438 11.335938 29.601562 10.703125 29.136719 10.652344 C 30.847656 10.136719 33.195312 10.25 34.574219 10.960938 C 35.421875 12.730469 36.210938 14.328125 37.347656 15.691406 C 42.03125 21.332031 51.628906 22 57.457031 26.5 L 57.96875 26.5 C 59.179688 27.652344 60.691406 28.503906 61.355469 30.203125 C 60.914062 30.132812 60.726562 29.804688 60.328125 29.6875 C 60.796875 30.398438 62.132812 30.632812 61.765625 31.851562 Z M 61.765625 31.851562 " fill-opacity="1" fill-rule="nonzero"/></g><g fill="#000000" fill-opacity="1"><g transform="translate(19.571087, 36.985477)"><g><path d="M 0.421875 -1.65625 C 0.367188 -1.675781 0.332031 -1.6875 0.3125 -1.6875 C 0.269531 -1.6875 0.238281 -1.679688 0.21875 -1.671875 C 0.195312 -1.671875 0.179688 -1.671875 0.171875 -1.671875 C 0.171875 -1.679688 0.171875 -1.6875 0.171875 -1.6875 C 0.171875 -1.695312 0.171875 -1.707031 0.171875 -1.71875 C 0.179688 -1.726562 0.191406 -1.734375 0.203125 -1.734375 C 0.304688 -1.753906 0.453125 -1.765625 0.640625 -1.765625 L 1.1875 -0.890625 L 1.703125 -1.765625 C 1.890625 -1.765625 2.035156 -1.753906 2.140625 -1.734375 C 2.160156 -1.722656 2.171875 -1.707031 2.171875 -1.6875 C 2.171875 -1.675781 2.160156 -1.671875 2.140625 -1.671875 C 2.117188 -1.679688 2.085938 -1.6875 2.046875 -1.6875 C 2.003906 -1.6875 1.960938 -1.675781 1.921875 -1.65625 L 2.125 -0.1875 C 2.132812 -0.113281 2.160156 -0.0664062 2.203125 -0.046875 C 2.210938 -0.046875 2.21875 -0.0351562 2.21875 -0.015625 C 2.21875 -0.00390625 2.210938 0 2.203125 0 L 1.84375 0 C 1.832031 0 1.828125 -0.00390625 1.828125 -0.015625 C 1.828125 -0.0234375 1.828125 -0.03125 1.828125 -0.03125 C 1.835938 -0.0390625 1.84375 -0.046875 1.84375 -0.046875 C 1.863281 -0.0546875 1.878906 -0.078125 1.890625 -0.109375 C 1.910156 -0.140625 1.921875 -0.160156 1.921875 -0.171875 C 1.921875 -0.191406 1.921875 -0.203125 1.921875 -0.203125 L 1.75 -1.484375 L 1.734375 -1.484375 L 1.203125 -0.5625 C 1.203125 -0.550781 1.1875 -0.546875 1.15625 -0.546875 C 1.132812 -0.546875 1.125 -0.550781 1.125 -0.5625 L 0.578125 -1.484375 L 0.5625 -1.484375 L 0.40625 -0.203125 C 0.40625 -0.179688 0.410156 -0.15625 0.421875 -0.125 C 0.429688 -0.09375 0.441406 -0.0703125 0.453125 -0.0625 C 0.460938 -0.0507812 0.472656 -0.046875 0.484375 -0.046875 C 0.492188 -0.046875 0.5 -0.0351562 0.5 -0.015625 C 0.5 -0.00390625 0.492188 0 0.484375 0 L 0.15625 0 C 0.144531 0 0.140625 -0.00390625 0.140625 -0.015625 C 0.140625 -0.0234375 0.140625 -0.03125 0.140625 -0.03125 C 0.140625 -0.0390625 0.144531 -0.046875 0.15625 -0.046875 C 0.1875 -0.0664062 0.207031 -0.113281 0.21875 -0.1875 Z M 0.421875 -1.65625 "/></g></g></g><g fill="#000000" fill-opacity="1"><g transform="translate(22.010551, 36.985477)"><g><path d="M 0.34375 -0.859375 C 0.300781 -0.828125 0.269531 -0.785156 0.25 -0.734375 C 0.226562 -0.691406 0.21875 -0.632812 0.21875 -0.5625 C 0.21875 -0.488281 0.234375 -0.414062 0.265625 -0.34375 C 0.304688 -0.269531 0.363281 -0.210938 0.4375 -0.171875 C 0.507812 -0.128906 0.578125 -0.109375 0.640625 -0.109375 C 0.710938 -0.109375 0.769531 -0.125 0.8125 -0.15625 C 0.863281 -0.1875 0.898438 -0.222656 0.921875 -0.265625 C 0.941406 -0.316406 0.953125 -0.375 0.953125 -0.4375 C 0.953125 -0.5625 0.910156 -0.671875 0.828125 -0.765625 C 0.753906 -0.859375 0.648438 -0.90625 0.515625 -0.90625 C 0.453125 -0.90625 0.394531 -0.890625 0.34375 -0.859375 Z M 0.21875 -0.125 C 0.164062 -0.175781 0.125 -0.234375 0.09375 -0.296875 C 0.0703125 -0.359375 0.0625 -0.429688 0.0625 -0.515625 C 0.0625 -0.609375 0.0820312 -0.695312 0.125 -0.78125 C 0.164062 -0.863281 0.226562 -0.925781 0.3125 -0.96875 C 0.40625 -1.019531 0.492188 -1.046875 0.578125 -1.046875 C 0.742188 -1.046875 0.875 -0.992188 0.96875 -0.890625 C 1.070312 -0.785156 1.125 -0.65625 1.125 -0.5 C 1.125 -0.351562 1.070312 -0.226562 0.96875 -0.125 C 0.863281 -0.03125 0.734375 0.015625 0.578125 0.015625 C 0.515625 0.015625 0.453125 0.00390625 0.390625 -0.015625 C 0.328125 -0.046875 0.269531 -0.0820312 0.21875 -0.125 Z M 0.21875 -0.125 "/></g></g></g><g fill="#000000" fill-opacity="1"><g transform="translate(23.276408, 36.985477)"><g><path d="M 0.78125 -1.578125 L 0.78125 -1.609375 C 0.789062 -1.609375 0.796875 -1.609375 0.796875 -1.609375 L 0.984375 -1.765625 C 0.992188 -1.765625 1.003906 -1.765625 1.015625 -1.765625 C 1.023438 -1.765625 1.03125 -1.757812 1.03125 -1.75 C 1.039062 -1.75 1.046875 -1.742188 1.046875 -1.734375 C 1.046875 -1.085938 1.046875 -0.585938 1.046875 -0.234375 C 1.046875 -0.222656 1.046875 -0.21875 1.046875 -0.21875 C 1.046875 -0.21875 1.046875 -0.210938 1.046875 -0.203125 C 1.054688 -0.203125 1.066406 -0.203125 1.078125 -0.203125 C 1.085938 -0.203125 1.09375 -0.195312 1.09375 -0.1875 C 1.101562 -0.1875 1.109375 -0.179688 1.109375 -0.171875 C 1.109375 -0.160156 1.109375 -0.148438 1.109375 -0.140625 L 0.921875 0 C 0.921875 0 0.910156 0 0.890625 0 C 0.878906 0 0.875 0 0.875 0 C 0.875 0 0.875 -0.00390625 0.875 -0.015625 C 0.875 -0.0234375 0.875 -0.03125 0.875 -0.03125 C 0.875 -0.0390625 0.867188 -0.0507812 0.859375 -0.0625 C 0.859375 -0.0703125 0.859375 -0.078125 0.859375 -0.078125 C 0.859375 -0.078125 0.851562 -0.0703125 0.84375 -0.0625 L 0.8125 -0.046875 C 0.738281 -0.00390625 0.664062 0.015625 0.59375 0.015625 C 0.519531 0.015625 0.453125 0.00390625 0.390625 -0.015625 C 0.328125 -0.046875 0.269531 -0.0820312 0.21875 -0.125 C 0.164062 -0.175781 0.125 -0.234375 0.09375 -0.296875 C 0.0703125 -0.359375 0.0625 -0.429688 0.0625 -0.515625 C 0.0625 -0.609375 0.0820312 -0.695312 0.125 -0.78125 C 0.164062 -0.863281 0.226562 -0.925781 0.3125 -0.96875 C 0.40625 -1.019531 0.503906 -1.046875 0.609375 -1.046875 C 0.660156 -1.046875 0.707031 -1.035156 0.75 -1.015625 C 0.800781 -0.992188 0.835938 -0.972656 0.859375 -0.953125 L 0.875 -0.953125 C 0.875 -1.179688 0.875 -1.363281 0.875 -1.5 C 0.875 -1.519531 0.863281 -1.535156 0.84375 -1.546875 C 0.832031 -1.554688 0.820312 -1.5625 0.8125 -1.5625 C 0.800781 -1.5625 0.796875 -1.5625 0.796875 -1.5625 C 0.785156 -1.570312 0.78125 -1.578125 0.78125 -1.578125 Z M 0.875 -0.25 L 0.875 -0.71875 C 0.84375 -0.769531 0.789062 -0.8125 0.71875 -0.84375 C 0.65625 -0.882812 0.585938 -0.90625 0.515625 -0.90625 C 0.410156 -0.90625 0.328125 -0.851562 0.265625 -0.75 C 0.234375 -0.6875 0.21875 -0.628906 0.21875 -0.578125 C 0.21875 -0.453125 0.257812 -0.34375 0.34375 -0.25 C 0.425781 -0.164062 0.53125 -0.125 0.65625 -0.125 C 0.695312 -0.125 0.734375 -0.132812 0.765625 -0.15625 C 0.804688 -0.1875 0.84375 -0.21875 0.875 -0.25 Z M 0.875 -0.25 "/></g></g></g><g fill="#000000" fill-opacity="1"><g transform="translate(24.530422, 36.985477)"><g><path d="M 0.828125 -0.75 C 0.785156 -0.863281 0.691406 -0.921875 0.546875 -0.921875 C 0.484375 -0.921875 0.425781 -0.90625 0.375 -0.875 C 0.320312 -0.84375 0.28125 -0.800781 0.25 -0.75 C 0.226562 -0.695312 0.21875 -0.644531 0.21875 -0.59375 C 0.21875 -0.550781 0.21875 -0.53125 0.21875 -0.53125 Z M 0.234375 -0.421875 C 0.265625 -0.335938 0.316406 -0.269531 0.390625 -0.21875 C 0.460938 -0.164062 0.546875 -0.140625 0.640625 -0.140625 C 0.765625 -0.140625 0.875 -0.195312 0.96875 -0.3125 C 0.988281 -0.320312 1.007812 -0.316406 1.03125 -0.296875 C 1.039062 -0.285156 1.039062 -0.28125 1.03125 -0.28125 C 0.957031 -0.164062 0.894531 -0.09375 0.84375 -0.0625 C 0.769531 -0.0078125 0.679688 0.015625 0.578125 0.015625 C 0.515625 0.015625 0.453125 0.00390625 0.390625 -0.015625 C 0.253906 -0.078125 0.160156 -0.171875 0.109375 -0.296875 C 0.078125 -0.359375 0.0625 -0.429688 0.0625 -0.515625 C 0.0625 -0.609375 0.0820312 -0.695312 0.125 -0.78125 C 0.164062 -0.863281 0.226562 -0.925781 0.3125 -0.96875 C 0.40625 -1.019531 0.503906 -1.046875 0.609375 -1.046875 C 0.742188 -1.046875 0.863281 -0.984375 0.96875 -0.859375 C 1.019531 -0.796875 1.046875 -0.742188 1.046875 -0.703125 Z M 0.234375 -0.421875 "/></g></g></g><g fill="#000000" fill-opacity="1"><g transform="translate(25.732754, 36.985477)"><g><path d="M 0.09375 -0.84375 L 0.09375 -0.859375 C 0.09375 -0.867188 0.09375 -0.875 0.09375 -0.875 C 0.101562 -0.875 0.109375 -0.875 0.109375 -0.875 L 0.296875 -1.015625 C 0.304688 -1.023438 0.316406 -1.03125 0.328125 -1.03125 C 0.335938 -1.03125 0.34375 -1.023438 0.34375 -1.015625 C 0.351562 -1.015625 0.359375 -1.003906 0.359375 -0.984375 L 0.359375 -0.8125 C 0.359375 -0.8125 0.363281 -0.816406 0.375 -0.828125 C 0.425781 -0.890625 0.476562 -0.9375 0.53125 -0.96875 C 0.59375 -1.007812 0.660156 -1.03125 0.734375 -1.03125 C 0.753906 -1.03125 0.765625 -1.03125 0.765625 -1.03125 C 0.773438 -0.988281 0.785156 -0.957031 0.796875 -0.9375 L 0.828125 -0.796875 C 0.828125 -0.796875 0.820312 -0.789062 0.8125 -0.78125 C 0.800781 -0.769531 0.789062 -0.765625 0.78125 -0.765625 C 0.78125 -0.765625 0.773438 -0.773438 0.765625 -0.796875 L 0.75 -0.8125 C 0.707031 -0.84375 0.660156 -0.851562 0.609375 -0.84375 C 0.554688 -0.84375 0.507812 -0.828125 0.46875 -0.796875 C 0.425781 -0.765625 0.394531 -0.734375 0.375 -0.703125 C 0.375 -0.703125 0.367188 -0.695312 0.359375 -0.6875 L 0.359375 -0.1875 C 0.359375 -0.1875 0.359375 -0.175781 0.359375 -0.15625 C 0.359375 -0.144531 0.359375 -0.140625 0.359375 -0.140625 C 0.367188 -0.0976562 0.382812 -0.0703125 0.40625 -0.0625 C 0.425781 -0.0507812 0.4375 -0.0390625 0.4375 -0.03125 C 0.4375 -0.0078125 0.4375 0 0.4375 0 L 0.109375 0 C 0.0976562 0 0.09375 -0.00390625 0.09375 -0.015625 C 0.09375 -0.0234375 0.09375 -0.03125 0.09375 -0.03125 C 0.101562 -0.0390625 0.113281 -0.046875 0.125 -0.046875 C 0.132812 -0.0546875 0.144531 -0.0625 0.15625 -0.0625 C 0.164062 -0.0703125 0.171875 -0.0820312 0.171875 -0.09375 C 0.179688 -0.113281 0.1875 -0.132812 0.1875 -0.15625 C 0.1875 -0.175781 0.1875 -0.1875 0.1875 -0.1875 L 0.1875 -0.75 C 0.1875 -0.78125 0.179688 -0.800781 0.171875 -0.8125 C 0.160156 -0.820312 0.144531 -0.828125 0.125 -0.828125 C 0.113281 -0.828125 0.109375 -0.828125 0.109375 -0.828125 C 0.0976562 -0.828125 0.09375 -0.832031 0.09375 -0.84375 Z M 0.09375 -0.84375 "/></g></g></g><g fill="#000000" fill-opacity="1"><g transform="translate(26.660527, 36.985477)"><g><path d="M 0.109375 0 C 0.0976562 0 0.09375 -0.00390625 0.09375 -0.015625 C 0.09375 -0.0234375 0.09375 -0.03125 0.09375 -0.03125 C 0.101562 -0.0390625 0.113281 -0.046875 0.125 -0.046875 C 0.132812 -0.0546875 0.144531 -0.0625 0.15625 -0.0625 C 0.175781 -0.0820312 0.1875 -0.109375 0.1875 -0.140625 C 0.1875 -0.171875 0.1875 -0.1875 0.1875 -0.1875 L 0.1875 -0.75 C 0.1875 -0.78125 0.175781 -0.800781 0.15625 -0.8125 C 0.144531 -0.820312 0.132812 -0.828125 0.125 -0.828125 C 0.113281 -0.828125 0.101562 -0.828125 0.09375 -0.828125 C 0.09375 -0.835938 0.09375 -0.84375 0.09375 -0.84375 C 0.09375 -0.851562 0.09375 -0.859375 0.09375 -0.859375 C 0.09375 -0.867188 0.09375 -0.875 0.09375 -0.875 C 0.101562 -0.875 0.109375 -0.875 0.109375 -0.875 L 0.296875 -1.015625 C 0.296875 -1.023438 0.300781 -1.03125 0.3125 -1.03125 C 0.332031 -1.03125 0.34375 -1.023438 0.34375 -1.015625 C 0.351562 -1.015625 0.359375 -1.003906 0.359375 -0.984375 L 0.359375 -0.90625 L 0.453125 -0.953125 C 0.546875 -1.003906 0.632812 -1.03125 0.71875 -1.03125 C 0.8125 -1.03125 0.898438 -1 0.984375 -0.9375 C 1.023438 -0.914062 1.054688 -0.882812 1.078125 -0.84375 C 1.097656 -0.800781 1.109375 -0.757812 1.109375 -0.71875 L 1.109375 -0.140625 C 1.109375 -0.128906 1.113281 -0.113281 1.125 -0.09375 C 1.132812 -0.0703125 1.144531 -0.0546875 1.15625 -0.046875 C 1.175781 -0.046875 1.1875 -0.0390625 1.1875 -0.03125 C 1.1875 -0.0078125 1.1875 0 1.1875 0 L 0.859375 0 C 0.859375 0 0.859375 -0.00390625 0.859375 -0.015625 C 0.859375 -0.0234375 0.859375 -0.03125 0.859375 -0.03125 C 0.867188 -0.0390625 0.875 -0.046875 0.875 -0.046875 C 0.882812 -0.0546875 0.894531 -0.0625 0.90625 -0.0625 C 0.914062 -0.0703125 0.921875 -0.078125 0.921875 -0.078125 C 0.921875 -0.0859375 0.921875 -0.0976562 0.921875 -0.109375 C 0.929688 -0.117188 0.9375 -0.125 0.9375 -0.125 C 0.9375 -0.132812 0.9375 -0.144531 0.9375 -0.15625 C 0.9375 -0.175781 0.9375 -0.1875 0.9375 -0.1875 L 0.9375 -0.6875 C 0.9375 -0.726562 0.921875 -0.765625 0.890625 -0.796875 C 0.835938 -0.859375 0.757812 -0.890625 0.65625 -0.890625 C 0.5625 -0.890625 0.460938 -0.863281 0.359375 -0.8125 L 0.359375 -0.140625 C 0.359375 -0.128906 0.363281 -0.113281 0.375 -0.09375 C 0.382812 -0.0703125 0.394531 -0.0546875 0.40625 -0.046875 C 0.425781 -0.046875 0.4375 -0.0390625 0.4375 -0.03125 C 0.4375 -0.0078125 0.429688 0 0.421875 0 Z M 0.109375 0 "/></g></g></g><g fill="#000000" fill-opacity="1"><g transform="translate(28.00283, 36.985477)"><g/></g></g><g fill="#000000" fill-opacity="1"><g transform="translate(28.631279, 36.985477)"><g><path d="M 1 -0.125 C 1.15625 -0.125 1.296875 -0.160156 1.421875 -0.234375 C 1.554688 -0.304688 1.664062 -0.40625 1.75 -0.53125 C 1.75 -0.539062 1.75 -0.539062 1.75 -0.53125 C 1.757812 -0.53125 1.769531 -0.523438 1.78125 -0.515625 L 1.8125 -0.46875 C 1.820312 -0.445312 1.828125 -0.4375 1.828125 -0.4375 C 1.785156 -0.34375 1.710938 -0.253906 1.609375 -0.171875 C 1.421875 -0.015625 1.21875 0.0625 1 0.0625 C 0.863281 0.0625 0.738281 0.0351562 0.625 -0.015625 C 0.507812 -0.0664062 0.410156 -0.132812 0.328125 -0.21875 C 0.253906 -0.300781 0.195312 -0.398438 0.15625 -0.515625 C 0.113281 -0.628906 0.09375 -0.75 0.09375 -0.875 C 0.09375 -1 0.113281 -1.113281 0.15625 -1.21875 C 0.207031 -1.332031 0.269531 -1.429688 0.34375 -1.515625 C 0.425781 -1.597656 0.523438 -1.660156 0.640625 -1.703125 C 0.753906 -1.753906 0.867188 -1.78125 0.984375 -1.78125 C 1.117188 -1.78125 1.253906 -1.753906 1.390625 -1.703125 L 1.4375 -1.6875 C 1.445312 -1.6875 1.457031 -1.6875 1.46875 -1.6875 C 1.476562 -1.695312 1.488281 -1.703125 1.5 -1.703125 C 1.519531 -1.703125 1.535156 -1.695312 1.546875 -1.6875 C 1.546875 -1.6875 1.546875 -1.679688 1.546875 -1.671875 C 1.546875 -1.648438 1.550781 -1.597656 1.5625 -1.515625 L 1.59375 -1.40625 C 1.601562 -1.375 1.609375 -1.351562 1.609375 -1.34375 C 1.609375 -1.34375 1.597656 -1.335938 1.578125 -1.328125 C 1.554688 -1.316406 1.546875 -1.3125 1.546875 -1.3125 C 1.484375 -1.414062 1.40625 -1.488281 1.3125 -1.53125 C 1.226562 -1.570312 1.117188 -1.59375 0.984375 -1.59375 C 0.847656 -1.59375 0.722656 -1.5625 0.609375 -1.5 C 0.503906 -1.4375 0.421875 -1.347656 0.359375 -1.234375 C 0.304688 -1.128906 0.28125 -1.007812 0.28125 -0.875 C 0.28125 -0.78125 0.300781 -0.6875 0.34375 -0.59375 C 0.382812 -0.507812 0.4375 -0.429688 0.5 -0.359375 C 0.570312 -0.285156 0.648438 -0.226562 0.734375 -0.1875 C 0.816406 -0.144531 0.90625 -0.125 1 -0.125 Z M 1 -0.125 "/></g></g></g><g fill="#000000" fill-opacity="1"><g transform="translate(30.61099, 36.985477)"><g><path d="M 0.09375 -1.578125 L 0.109375 -1.609375 L 0.3125 -1.765625 C 0.34375 -1.765625 0.359375 -1.753906 0.359375 -1.734375 L 0.359375 -0.1875 C 0.359375 -0.1875 0.359375 -0.179688 0.359375 -0.171875 C 0.359375 -0.160156 0.359375 -0.148438 0.359375 -0.140625 C 0.367188 -0.0976562 0.382812 -0.0703125 0.40625 -0.0625 C 0.4375 -0.0507812 0.453125 -0.0390625 0.453125 -0.03125 C 0.453125 -0.0078125 0.445312 0 0.4375 0 L 0.125 0 C 0.113281 0 0.109375 -0.00390625 0.109375 -0.015625 C 0.109375 -0.0234375 0.109375 -0.03125 0.109375 -0.03125 C 0.117188 -0.0390625 0.128906 -0.046875 0.140625 -0.046875 C 0.148438 -0.0546875 0.15625 -0.0625 0.15625 -0.0625 C 0.164062 -0.0703125 0.171875 -0.078125 0.171875 -0.078125 C 0.171875 -0.0859375 0.171875 -0.09375 0.171875 -0.09375 C 0.179688 -0.101562 0.1875 -0.113281 0.1875 -0.125 C 0.1875 -0.132812 0.1875 -0.140625 0.1875 -0.140625 L 0.1875 -1.5 C 0.1875 -1.519531 0.179688 -1.535156 0.171875 -1.546875 C 0.160156 -1.554688 0.148438 -1.5625 0.140625 -1.5625 C 0.128906 -1.5625 0.117188 -1.5625 0.109375 -1.5625 C 0.0976562 -1.570312 0.09375 -1.578125 0.09375 -1.578125 Z M 0.09375 -1.578125 "/></g></g></g><g fill="#000000" fill-opacity="1"><g transform="translate(31.258821, 36.985477)"><g><path d="M 0.34375 -0.859375 C 0.300781 -0.828125 0.269531 -0.785156 0.25 -0.734375 C 0.226562 -0.691406 0.21875 -0.632812 0.21875 -0.5625 C 0.21875 -0.488281 0.234375 -0.414062 0.265625 -0.34375 C 0.304688 -0.269531 0.363281 -0.210938 0.4375 -0.171875 C 0.507812 -0.128906 0.578125 -0.109375 0.640625 -0.109375 C 0.710938 -0.109375 0.769531 -0.125 0.8125 -0.15625 C 0.863281 -0.1875 0.898438 -0.222656 0.921875 -0.265625 C 0.941406 -0.316406 0.953125 -0.375 0.953125 -0.4375 C 0.953125 -0.5625 0.910156 -0.671875 0.828125 -0.765625 C 0.753906 -0.859375 0.648438 -0.90625 0.515625 -0.90625 C 0.453125 -0.90625 0.394531 -0.890625 0.34375 -0.859375 Z M 0.21875 -0.125 C 0.164062 -0.175781 0.125 -0.234375 0.09375 -0.296875 C 0.0703125 -0.359375 0.0625 -0.429688 0.0625 -0.515625 C 0.0625 -0.609375 0.0820312 -0.695312 0.125 -0.78125 C 0.164062 -0.863281 0.226562 -0.925781 0.3125 -0.96875 C 0.40625 -1.019531 0.492188 -1.046875 0.578125 -1.046875 C 0.742188 -1.046875 0.875 -0.992188 0.96875 -0.890625 C 1.070312 -0.785156 1.125 -0.65625 1.125 -0.5 C 1.125 -0.351562 1.070312 -0.226562 0.96875 -0.125 C 0.863281 -0.03125 0.734375 0.015625 0.578125 0.015625 C 0.515625 0.015625 0.453125 0.00390625 0.390625 -0.015625 C 0.328125 -0.046875 0.269531 -0.0820312 0.21875 -0.125 Z M 0.21875 -0.125 "/></g></g></g><g fill="#000000" fill-opacity="1"><g transform="translate(32.524678, 36.985477)"><g><path d="M 0.234375 -1.21875 C 0.234375 -1.226562 0.242188 -1.234375 0.265625 -1.234375 C 0.296875 -1.234375 0.3125 -1.226562 0.3125 -1.21875 L 0.3125 -1.03125 L 0.5 -1.03125 C 0.539062 -1.03125 0.5625 -1.023438 0.5625 -1.015625 L 0.5625 -0.921875 C 0.5625 -0.910156 0.539062 -0.90625 0.5 -0.90625 L 0.3125 -0.90625 L 0.3125 -0.234375 C 0.3125 -0.148438 0.335938 -0.101562 0.390625 -0.09375 C 0.421875 -0.0820312 0.457031 -0.0976562 0.5 -0.140625 C 0.519531 -0.148438 0.53125 -0.148438 0.53125 -0.140625 C 0.539062 -0.140625 0.546875 -0.132812 0.546875 -0.125 C 0.554688 -0.125 0.5625 -0.117188 0.5625 -0.109375 C 0.5625 -0.0976562 0.554688 -0.09375 0.546875 -0.09375 L 0.515625 -0.0625 C 0.441406 0 0.367188 0.0234375 0.296875 0.015625 C 0.234375 0.015625 0.1875 -0.0234375 0.15625 -0.109375 C 0.132812 -0.148438 0.125 -0.195312 0.125 -0.25 L 0.125 -0.90625 L 0.078125 -0.90625 C 0.046875 -0.90625 0.03125 -0.910156 0.03125 -0.921875 L 0.03125 -1.015625 C 0.03125 -1.023438 0.046875 -1.03125 0.078125 -1.03125 C 0.128906 -1.03125 0.164062 -1.046875 0.1875 -1.078125 C 0.207031 -1.117188 0.222656 -1.164062 0.234375 -1.21875 Z M 0.234375 -1.21875 "/></g></g></g><g fill="#000000" fill-opacity="1"><g transform="translate(33.174661, 36.985477)"><g><path d="M 0.09375 -1.578125 L 0.109375 -1.609375 L 0.3125 -1.765625 C 0.3125 -1.765625 0.316406 -1.765625 0.328125 -1.765625 C 0.347656 -1.765625 0.359375 -1.757812 0.359375 -1.75 C 0.359375 -1.75 0.359375 -1.742188 0.359375 -1.734375 L 0.359375 -0.90625 C 0.390625 -0.925781 0.410156 -0.9375 0.421875 -0.9375 L 0.453125 -0.953125 C 0.554688 -1.003906 0.648438 -1.03125 0.734375 -1.03125 C 0.816406 -1.03125 0.898438 -1 0.984375 -0.9375 C 1.023438 -0.914062 1.054688 -0.882812 1.078125 -0.84375 C 1.109375 -0.800781 1.125 -0.757812 1.125 -0.71875 L 1.125 -0.1875 C 1.125 -0.1875 1.125 -0.175781 1.125 -0.15625 C 1.125 -0.144531 1.125 -0.140625 1.125 -0.140625 C 1.125 -0.0976562 1.132812 -0.0703125 1.15625 -0.0625 C 1.1875 -0.0507812 1.203125 -0.0390625 1.203125 -0.03125 C 1.203125 -0.0078125 1.195312 0 1.1875 0 L 0.875 0 C 0.863281 0 0.859375 -0.00390625 0.859375 -0.015625 C 0.859375 -0.0234375 0.859375 -0.03125 0.859375 -0.03125 C 0.867188 -0.0390625 0.878906 -0.046875 0.890625 -0.046875 C 0.898438 -0.0546875 0.90625 -0.0625 0.90625 -0.0625 C 0.914062 -0.0703125 0.921875 -0.078125 0.921875 -0.078125 C 0.929688 -0.0859375 0.9375 -0.0976562 0.9375 -0.109375 C 0.9375 -0.117188 0.9375 -0.125 0.9375 -0.125 C 0.9375 -0.132812 0.9375 -0.144531 0.9375 -0.15625 C 0.9375 -0.175781 0.9375 -0.1875 0.9375 -0.1875 L 0.9375 -0.6875 C 0.9375 -0.726562 0.921875 -0.765625 0.890625 -0.796875 C 0.835938 -0.859375 0.757812 -0.890625 0.65625 -0.890625 C 0.5625 -0.890625 0.460938 -0.863281 0.359375 -0.8125 L 0.359375 -0.1875 C 0.359375 -0.1875 0.359375 -0.175781 0.359375 -0.15625 C 0.359375 -0.144531 0.359375 -0.140625 0.359375 -0.140625 C 0.367188 -0.0976562 0.382812 -0.0703125 0.40625 -0.0625 C 0.4375 -0.0507812 0.453125 -0.0390625 0.453125 -0.03125 C 0.453125 -0.0078125 0.445312 0 0.4375 0 L 0.125 0 C 0.113281 0 0.109375 -0.00390625 0.109375 -0.015625 C 0.109375 -0.0234375 0.109375 -0.03125 0.109375 -0.03125 C 0.117188 -0.0390625 0.128906 -0.046875 0.140625 -0.046875 C 0.148438 -0.0546875 0.15625 -0.0625 0.15625 -0.0625 C 0.175781 -0.0820312 0.1875 -0.109375 0.1875 -0.140625 C 0.1875 -0.171875 0.1875 -0.1875 0.1875 -0.1875 L 0.1875 -1.5 C 0.1875 -1.519531 0.179688 -1.535156 0.171875 -1.546875 C 0.160156 -1.554688 0.148438 -1.5625 0.140625 -1.5625 C 0.128906 -1.5625 0.117188 -1.5625 0.109375 -1.5625 C 0.0976562 -1.570312 0.09375 -1.578125 0.09375 -1.578125 Z M 0.09375 -1.578125 "/></g></g></g><g fill="#000000" fill-opacity="1"><g transform="translate(34.541728, 36.985477)"><g><path d="M 0.359375 -1.5625 L 0.359375 -1.46875 C 0.359375 -1.46875 0.351562 -1.460938 0.34375 -1.453125 C 0.34375 -1.453125 0.328125 -1.445312 0.296875 -1.4375 C 0.273438 -1.425781 0.257812 -1.414062 0.25 -1.40625 C 0.238281 -1.40625 0.226562 -1.398438 0.21875 -1.390625 C 0.207031 -1.390625 0.203125 -1.390625 0.203125 -1.390625 C 0.203125 -1.398438 0.203125 -1.414062 0.203125 -1.4375 L 0.203125 -1.546875 C 0.203125 -1.546875 0.195312 -1.546875 0.1875 -1.546875 C 0.1875 -1.554688 0.1875 -1.5625 0.1875 -1.5625 C 0.195312 -1.5625 0.203125 -1.5625 0.203125 -1.5625 C 0.203125 -1.570312 0.203125 -1.578125 0.203125 -1.578125 C 0.203125 -1.578125 0.210938 -1.582031 0.234375 -1.59375 C 0.265625 -1.601562 0.289062 -1.613281 0.3125 -1.625 C 0.332031 -1.632812 0.34375 -1.632812 0.34375 -1.625 C 0.351562 -1.625 0.359375 -1.601562 0.359375 -1.5625 Z M 0.109375 0 C 0.0976562 0 0.09375 -0.00390625 0.09375 -0.015625 C 0.09375 -0.0234375 0.0976562 -0.03125 0.109375 -0.03125 C 0.117188 -0.0390625 0.125 -0.0507812 0.125 -0.0625 C 0.164062 -0.0703125 0.1875 -0.101562 0.1875 -0.15625 L 0.1875 -0.75 C 0.1875 -0.78125 0.179688 -0.800781 0.171875 -0.8125 C 0.160156 -0.820312 0.144531 -0.828125 0.125 -0.828125 C 0.113281 -0.828125 0.101562 -0.828125 0.09375 -0.828125 C 0.09375 -0.828125 0.09375 -0.832031 0.09375 -0.84375 C 0.09375 -0.863281 0.09375 -0.875 0.09375 -0.875 C 0.101562 -0.875 0.109375 -0.875 0.109375 -0.875 L 0.296875 -1.015625 C 0.304688 -1.023438 0.3125 -1.023438 0.3125 -1.015625 C 0.3125 -1.015625 0.316406 -1.015625 0.328125 -1.015625 C 0.347656 -1.015625 0.359375 -1.003906 0.359375 -0.984375 L 0.359375 -0.15625 C 0.359375 -0.101562 0.378906 -0.0703125 0.421875 -0.0625 C 0.441406 -0.0507812 0.453125 -0.0390625 0.453125 -0.03125 C 0.453125 -0.0078125 0.445312 0 0.4375 0 Z M 0.109375 0 "/></g></g></g><g fill="#000000" fill-opacity="1"><g transform="translate(35.164794, 36.985477)"><g><path d="M 0.109375 0 C 0.0976562 0 0.09375 -0.00390625 0.09375 -0.015625 C 0.09375 -0.0234375 0.09375 -0.03125 0.09375 -0.03125 C 0.101562 -0.0390625 0.113281 -0.046875 0.125 -0.046875 C 0.132812 -0.0546875 0.144531 -0.0625 0.15625 -0.0625 C 0.175781 -0.0820312 0.1875 -0.109375 0.1875 -0.140625 C 0.1875 -0.171875 0.1875 -0.1875 0.1875 -0.1875 L 0.1875 -0.75 C 0.1875 -0.78125 0.175781 -0.800781 0.15625 -0.8125 C 0.144531 -0.820312 0.132812 -0.828125 0.125 -0.828125 C 0.113281 -0.828125 0.101562 -0.828125 0.09375 -0.828125 C 0.09375 -0.835938 0.09375 -0.84375 0.09375 -0.84375 C 0.09375 -0.851562 0.09375 -0.859375 0.09375 -0.859375 C 0.09375 -0.867188 0.09375 -0.875 0.09375 -0.875 C 0.101562 -0.875 0.109375 -0.875 0.109375 -0.875 L 0.296875 -1.015625 C 0.296875 -1.023438 0.300781 -1.03125 0.3125 -1.03125 C 0.332031 -1.03125 0.34375 -1.023438 0.34375 -1.015625 C 0.351562 -1.015625 0.359375 -1.003906 0.359375 -0.984375 L 0.359375 -0.90625 L 0.453125 -0.953125 C 0.546875 -1.003906 0.632812 -1.03125 0.71875 -1.03125 C 0.8125 -1.03125 0.898438 -1 0.984375 -0.9375 C 1.023438 -0.914062 1.054688 -0.882812 1.078125 -0.84375 C 1.097656 -0.800781 1.109375 -0.757812 1.109375 -0.71875 L 1.109375 -0.140625 C 1.109375 -0.128906 1.113281 -0.113281 1.125 -0.09375 C 1.132812 -0.0703125 1.144531 -0.0546875 1.15625 -0.046875 C 1.175781 -0.046875 1.1875 -0.0390625 1.1875 -0.03125 C 1.1875 -0.0078125 1.1875 0 1.1875 0 L 0.859375 0 C 0.859375 0 0.859375 -0.00390625 0.859375 -0.015625 C 0.859375 -0.0234375 0.859375 -0.03125 0.859375 -0.03125 C 0.867188 -0.0390625 0.875 -0.046875 0.875 -0.046875 C 0.882812 -0.0546875 0.894531 -0.0625 0.90625 -0.0625 C 0.914062 -0.0703125 0.921875 -0.078125 0.921875 -0.078125 C 0.921875 -0.0859375 0.921875 -0.0976562 0.921875 -0.109375 C 0.929688 -0.117188 0.9375 -0.125 0.9375 -0.125 C 0.9375 -0.132812 0.9375 -0.144531 0.9375 -0.15625 C 0.9375 -0.175781 0.9375 -0.1875 0.9375 -0.1875 L 0.9375 -0.6875 C 0.9375 -0.726562 0.921875 -0.765625 0.890625 -0.796875 C 0.835938 -0.859375 0.757812 -0.890625 0.65625 -0.890625 C 0.5625 -0.890625 0.460938 -0.863281 0.359375 -0.8125 L 0.359375 -0.140625 C 0.359375 -0.128906 0.363281 -0.113281 0.375 -0.09375 C 0.382812 -0.0703125 0.394531 -0.0546875 0.40625 -0.046875 C 0.425781 -0.046875 0.4375 -0.0390625 0.4375 -0.03125 C 0.4375 -0.0078125 0.429688 0 0.421875 0 Z M 0.109375 0 "/></g></g></g><g fill="#000000" fill-opacity="1"><g transform="translate(36.507097, 36.985477)"><g><path d="M 0.3125 -0.28125 C 0.289062 -0.28125 0.296875 -0.265625 0.328125 -0.234375 C 0.359375 -0.210938 0.40625 -0.195312 0.46875 -0.1875 C 0.539062 -0.175781 0.597656 -0.164062 0.640625 -0.15625 C 0.691406 -0.144531 0.742188 -0.128906 0.796875 -0.109375 C 0.847656 -0.0976562 0.890625 -0.0820312 0.921875 -0.0625 C 0.960938 -0.0390625 0.992188 -0.015625 1.015625 0.015625 C 1.046875 0.046875 1.0625 0.0820312 1.0625 0.125 C 1.0625 0.175781 1.050781 0.222656 1.03125 0.265625 C 0.957031 0.390625 0.789062 0.453125 0.53125 0.453125 C 0.414062 0.453125 0.304688 0.421875 0.203125 0.359375 C 0.109375 0.296875 0.0507812 0.210938 0.03125 0.109375 L 0.03125 0.09375 L 0.21875 -0.078125 C 0.226562 -0.078125 0.234375 -0.0703125 0.234375 -0.0625 C 0.242188 -0.0507812 0.25 -0.0390625 0.25 -0.03125 C 0.25 -0.03125 0.242188 -0.0195312 0.234375 0 C 0.222656 0.0078125 0.21875 0.0351562 0.21875 0.078125 C 0.21875 0.128906 0.238281 0.175781 0.28125 0.21875 C 0.320312 0.269531 0.375 0.300781 0.4375 0.3125 C 0.5625 0.332031 0.671875 0.328125 0.765625 0.296875 C 0.796875 0.285156 0.820312 0.265625 0.84375 0.234375 C 0.863281 0.210938 0.875 0.1875 0.875 0.15625 C 0.875 0.125 0.859375 0.101562 0.828125 0.09375 C 0.796875 0.0625 0.695312 0.03125 0.53125 0 C 0.375 -0.0390625 0.257812 -0.078125 0.1875 -0.109375 C 0.164062 -0.117188 0.15625 -0.125 0.15625 -0.125 C 0.15625 -0.125 0.164062 -0.144531 0.1875 -0.1875 C 0.207031 -0.226562 0.234375 -0.269531 0.265625 -0.3125 C 0.210938 -0.351562 0.171875 -0.398438 0.140625 -0.453125 C 0.109375 -0.503906 0.09375 -0.5625 0.09375 -0.625 C 0.09375 -0.75 0.128906 -0.847656 0.203125 -0.921875 C 0.285156 -0.992188 0.382812 -1.03125 0.5 -1.03125 C 0.613281 -1.03125 0.707031 -0.992188 0.78125 -0.921875 C 0.8125 -0.984375 0.828125 -1.015625 0.828125 -1.015625 C 0.828125 -1.023438 0.828125 -1.03125 0.828125 -1.03125 L 1.015625 -1.03125 C 1.015625 -1.03125 1.015625 -1.023438 1.015625 -1.015625 C 1.023438 -1.003906 1.03125 -0.992188 1.03125 -0.984375 C 1.007812 -0.984375 0.988281 -0.976562 0.96875 -0.96875 C 0.914062 -0.945312 0.875 -0.898438 0.84375 -0.828125 C 0.875 -0.773438 0.890625 -0.710938 0.890625 -0.640625 C 0.890625 -0.523438 0.847656 -0.425781 0.765625 -0.34375 C 0.691406 -0.269531 0.597656 -0.234375 0.484375 -0.234375 C 0.421875 -0.234375 0.363281 -0.25 0.3125 -0.28125 Z M 0.4375 -0.90625 C 0.300781 -0.90625 0.234375 -0.828125 0.234375 -0.671875 C 0.234375 -0.585938 0.265625 -0.515625 0.328125 -0.453125 C 0.390625 -0.398438 0.457031 -0.375 0.53125 -0.375 C 0.613281 -0.375 0.671875 -0.390625 0.703125 -0.421875 C 0.742188 -0.453125 0.765625 -0.507812 0.765625 -0.59375 C 0.765625 -0.675781 0.734375 -0.75 0.671875 -0.8125 C 0.609375 -0.875 0.53125 -0.90625 0.4375 -0.90625 Z M 0.4375 -0.90625 "/></g></g></g><g fill="#000000" fill-opacity="1"><g transform="translate(37.670668, 36.985477)"><g/></g></g><g fill="#000000" fill-opacity="1"><g transform="translate(38.299117, 36.985477)"><g><path d="M 0.375 -0.015625 C 0.34375 -0.015625 0.316406 -0.0195312 0.296875 -0.03125 C 0.273438 -0.0390625 0.257812 -0.046875 0.25 -0.046875 L 0.234375 -0.046875 C 0.210938 -0.046875 0.191406 -0.03125 0.171875 0 L 0.140625 0 L 0.046875 -0.328125 C 0.0351562 -0.335938 0.046875 -0.34375 0.078125 -0.34375 C 0.0859375 -0.34375 0.09375 -0.335938 0.09375 -0.328125 C 0.101562 -0.328125 0.109375 -0.320312 0.109375 -0.3125 C 0.203125 -0.195312 0.34375 -0.140625 0.53125 -0.140625 C 0.625 -0.140625 0.703125 -0.164062 0.765625 -0.21875 C 0.828125 -0.269531 0.859375 -0.34375 0.859375 -0.4375 C 0.859375 -0.5 0.847656 -0.546875 0.828125 -0.578125 C 0.804688 -0.617188 0.789062 -0.644531 0.78125 -0.65625 C 0.75 -0.695312 0.675781 -0.75 0.5625 -0.8125 C 0.457031 -0.875 0.375 -0.925781 0.3125 -0.96875 C 0.132812 -1.09375 0.046875 -1.21875 0.046875 -1.34375 C 0.046875 -1.476562 0.0859375 -1.582031 0.171875 -1.65625 C 0.253906 -1.726562 0.363281 -1.765625 0.5 -1.765625 C 0.570312 -1.765625 0.65625 -1.742188 0.75 -1.703125 C 0.78125 -1.679688 0.804688 -1.664062 0.828125 -1.65625 C 0.847656 -1.65625 0.859375 -1.660156 0.859375 -1.671875 C 0.867188 -1.691406 0.875 -1.703125 0.875 -1.703125 C 0.914062 -1.703125 0.9375 -1.695312 0.9375 -1.6875 L 0.96875 -1.34375 C 0.96875 -1.332031 0.945312 -1.328125 0.90625 -1.328125 C 0.90625 -1.328125 0.90625 -1.332031 0.90625 -1.34375 C 0.875 -1.414062 0.816406 -1.476562 0.734375 -1.53125 C 0.660156 -1.582031 0.582031 -1.609375 0.5 -1.609375 C 0.320312 -1.609375 0.234375 -1.535156 0.234375 -1.390625 C 0.234375 -1.285156 0.328125 -1.179688 0.515625 -1.078125 L 0.71875 -0.96875 C 0.84375 -0.894531 0.929688 -0.816406 0.984375 -0.734375 C 1.035156 -0.660156 1.0625 -0.578125 1.0625 -0.484375 L 1.0625 -0.46875 C 1.039062 -0.34375 1.019531 -0.257812 1 -0.21875 C 0.957031 -0.144531 0.894531 -0.0859375 0.8125 -0.046875 C 0.738281 -0.00390625 0.65625 0.015625 0.5625 0.015625 C 0.507812 0.015625 0.460938 0.0078125 0.421875 0 Z M 0.375 -0.015625 "/></g></g></g><g fill="#000000" fill-opacity="1"><g transform="translate(39.488529, 36.985477)"><g><path d="M 0.234375 -1.21875 C 0.234375 -1.226562 0.242188 -1.234375 0.265625 -1.234375 C 0.296875 -1.234375 0.3125 -1.226562 0.3125 -1.21875 L 0.3125 -1.03125 L 0.5 -1.03125 C 0.539062 -1.03125 0.5625 -1.023438 0.5625 -1.015625 L 0.5625 -0.921875 C 0.5625 -0.910156 0.539062 -0.90625 0.5 -0.90625 L 0.3125 -0.90625 L 0.3125 -0.234375 C 0.3125 -0.148438 0.335938 -0.101562 0.390625 -0.09375 C 0.421875 -0.0820312 0.457031 -0.0976562 0.5 -0.140625 C 0.519531 -0.148438 0.53125 -0.148438 0.53125 -0.140625 C 0.539062 -0.140625 0.546875 -0.132812 0.546875 -0.125 C 0.554688 -0.125 0.5625 -0.117188 0.5625 -0.109375 C 0.5625 -0.0976562 0.554688 -0.09375 0.546875 -0.09375 L 0.515625 -0.0625 C 0.441406 0 0.367188 0.0234375 0.296875 0.015625 C 0.234375 0.015625 0.1875 -0.0234375 0.15625 -0.109375 C 0.132812 -0.148438 0.125 -0.195312 0.125 -0.25 L 0.125 -0.90625 L 0.078125 -0.90625 C 0.046875 -0.90625 0.03125 -0.910156 0.03125 -0.921875 L 0.03125 -1.015625 C 0.03125 -1.023438 0.046875 -1.03125 0.078125 -1.03125 C 0.128906 -1.03125 0.164062 -1.046875 0.1875 -1.078125 C 0.207031 -1.117188 0.222656 -1.164062 0.234375 -1.21875 Z M 0.234375 -1.21875 "/></g></g></g><g fill="#000000" fill-opacity="1"><g transform="translate(40.138512, 36.985477)"><g><path d="M 0.34375 -0.859375 C 0.300781 -0.828125 0.269531 -0.785156 0.25 -0.734375 C 0.226562 -0.691406 0.21875 -0.632812 0.21875 -0.5625 C 0.21875 -0.488281 0.234375 -0.414062 0.265625 -0.34375 C 0.304688 -0.269531 0.363281 -0.210938 0.4375 -0.171875 C 0.507812 -0.128906 0.578125 -0.109375 0.640625 -0.109375 C 0.710938 -0.109375 0.769531 -0.125 0.8125 -0.15625 C 0.863281 -0.1875 0.898438 -0.222656 0.921875 -0.265625 C 0.941406 -0.316406 0.953125 -0.375 0.953125 -0.4375 C 0.953125 -0.5625 0.910156 -0.671875 0.828125 -0.765625 C 0.753906 -0.859375 0.648438 -0.90625 0.515625 -0.90625 C 0.453125 -0.90625 0.394531 -0.890625 0.34375 -0.859375 Z M 0.21875 -0.125 C 0.164062 -0.175781 0.125 -0.234375 0.09375 -0.296875 C 0.0703125 -0.359375 0.0625 -0.429688 0.0625 -0.515625 C 0.0625 -0.609375 0.0820312 -0.695312 0.125 -0.78125 C 0.164062 -0.863281 0.226562 -0.925781 0.3125 -0.96875 C 0.40625 -1.019531 0.492188 -1.046875 0.578125 -1.046875 C 0.742188 -1.046875 0.875 -0.992188 0.96875 -0.890625 C 1.070312 -0.785156 1.125 -0.65625 1.125 -0.5 C 1.125 -0.351562 1.070312 -0.226562 0.96875 -0.125 C 0.863281 -0.03125 0.734375 0.015625 0.578125 0.015625 C 0.515625 0.015625 0.453125 0.00390625 0.390625 -0.015625 C 0.328125 -0.046875 0.269531 -0.0820312 0.21875 -0.125 Z M 0.21875 -0.125 "/></g></g></g><g fill="#000000" fill-opacity="1"><g transform="translate(41.404369, 36.985477)"><g><path d="M 0.09375 -0.84375 L 0.09375 -0.859375 C 0.09375 -0.867188 0.09375 -0.875 0.09375 -0.875 C 0.101562 -0.875 0.109375 -0.875 0.109375 -0.875 L 0.296875 -1.015625 C 0.304688 -1.023438 0.316406 -1.03125 0.328125 -1.03125 C 0.335938 -1.03125 0.34375 -1.023438 0.34375 -1.015625 C 0.351562 -1.015625 0.359375 -1.003906 0.359375 -0.984375 L 0.359375 -0.8125 C 0.359375 -0.8125 0.363281 -0.816406 0.375 -0.828125 C 0.425781 -0.890625 0.476562 -0.9375 0.53125 -0.96875 C 0.59375 -1.007812 0.660156 -1.03125 0.734375 -1.03125 C 0.753906 -1.03125 0.765625 -1.03125 0.765625 -1.03125 C 0.773438 -0.988281 0.785156 -0.957031 0.796875 -0.9375 L 0.828125 -0.796875 C 0.828125 -0.796875 0.820312 -0.789062 0.8125 -0.78125 C 0.800781 -0.769531 0.789062 -0.765625 0.78125 -0.765625 C 0.78125 -0.765625 0.773438 -0.773438 0.765625 -0.796875 L 0.75 -0.8125 C 0.707031 -0.84375 0.660156 -0.851562 0.609375 -0.84375 C 0.554688 -0.84375 0.507812 -0.828125 0.46875 -0.796875 C 0.425781 -0.765625 0.394531 -0.734375 0.375 -0.703125 C 0.375 -0.703125 0.367188 -0.695312 0.359375 -0.6875 L 0.359375 -0.1875 C 0.359375 -0.1875 0.359375 -0.175781 0.359375 -0.15625 C 0.359375 -0.144531 0.359375 -0.140625 0.359375 -0.140625 C 0.367188 -0.0976562 0.382812 -0.0703125 0.40625 -0.0625 C 0.425781 -0.0507812 0.4375 -0.0390625 0.4375 -0.03125 C 0.4375 -0.0078125 0.4375 0 0.4375 0 L 0.109375 0 C 0.0976562 0 0.09375 -0.00390625 0.09375 -0.015625 C 0.09375 -0.0234375 0.09375 -0.03125 0.09375 -0.03125 C 0.101562 -0.0390625 0.113281 -0.046875 0.125 -0.046875 C 0.132812 -0.0546875 0.144531 -0.0625 0.15625 -0.0625 C 0.164062 -0.0703125 0.171875 -0.0820312 0.171875 -0.09375 C 0.179688 -0.113281 0.1875 -0.132812 0.1875 -0.15625 C 0.1875 -0.175781 0.1875 -0.1875 0.1875 -0.1875 L 0.1875 -0.75 C 0.1875 -0.78125 0.179688 -0.800781 0.171875 -0.8125 C 0.160156 -0.820312 0.144531 -0.828125 0.125 -0.828125 C 0.113281 -0.828125 0.109375 -0.828125 0.109375 -0.828125 C 0.0976562 -0.828125 0.09375 -0.832031 0.09375 -0.84375 Z M 0.09375 -0.84375 "/></g></g></g><g fill="#000000" fill-opacity="1"><g transform="translate(42.332142, 36.985477)"><g><path d="M 0.828125 -0.75 C 0.785156 -0.863281 0.691406 -0.921875 0.546875 -0.921875 C 0.484375 -0.921875 0.425781 -0.90625 0.375 -0.875 C 0.320312 -0.84375 0.28125 -0.800781 0.25 -0.75 C 0.226562 -0.695312 0.21875 -0.644531 0.21875 -0.59375 C 0.21875 -0.550781 0.21875 -0.53125 0.21875 -0.53125 Z M 0.234375 -0.421875 C 0.265625 -0.335938 0.316406 -0.269531 0.390625 -0.21875 C 0.460938 -0.164062 0.546875 -0.140625 0.640625 -0.140625 C 0.765625 -0.140625 0.875 -0.195312 0.96875 -0.3125 C 0.988281 -0.320312 1.007812 -0.316406 1.03125 -0.296875 C 1.039062 -0.285156 1.039062 -0.28125 1.03125 -0.28125 C 0.957031 -0.164062 0.894531 -0.09375 0.84375 -0.0625 C 0.769531 -0.0078125 0.679688 0.015625 0.578125 0.015625 C 0.515625 0.015625 0.453125 0.00390625 0.390625 -0.015625 C 0.253906 -0.078125 0.160156 -0.171875 0.109375 -0.296875 C 0.078125 -0.359375 0.0625 -0.429688 0.0625 -0.515625 C 0.0625 -0.609375 0.0820312 -0.695312 0.125 -0.78125 C 0.164062 -0.863281 0.226562 -0.925781 0.3125 -0.96875 C 0.40625 -1.019531 0.503906 -1.046875 0.609375 -1.046875 C 0.742188 -1.046875 0.863281 -0.984375 0.96875 -0.859375 C 1.019531 -0.796875 1.046875 -0.742188 1.046875 -0.703125 Z M 0.234375 -0.421875 "/></g></g></g><path stroke-linecap="butt" transform="matrix(0.000000000000000011, -0.185401, 0.183745, 0.000000000000000011, 12.125308, 30.365099)" fill="none" stroke-linejoin="miter" d="M 0.00980555 0.50854 L 6.941583 0.50854 " stroke="#000000" stroke-width="1" stroke-opacity="1" stroke-miterlimit="4"/><path stroke-linecap="butt" transform="matrix(0.000000000000000011, -0.177728, 0.183745, 0.000000000000000011, 50.216694, 30.36563)" fill="none" stroke-linejoin="miter" d="M -0.00876153 0.500147 L 6.211226 0.500147 " stroke="#000000" stroke-width="1" stroke-opacity="1" stroke-miterlimit="4"/></svg>